<?xml version="1.0" standalone="no"?>
<!DOCTYPE svg PUBLIC "-//W3C//DTD SVG 20010904//EN"
 "http://www.w3.org/TR/2001/REC-SVG-20010904/DTD/svg10.dtd">
<svg version="1.0" xmlns="http://www.w3.org/2000/svg"
 width="1024.000000pt" height="1024.000000pt" viewBox="0 0 1024.000000 1024.000000"
 preserveAspectRatio="xMidYMid meet">
<metadata>
Created by potrace 1.11, written by Peter Selinger 2001-2013
</metadata>
<g transform="translate(0.000000,1024.000000) scale(0.100000,-0.100000)"
fill="#000000" stroke="none">
<path d="M1940 5658 c-76 -29 -160 -114 -188 -191 -49 -131 -20 -271 77 -368
70 -70 141 -99 241 -99 97 0 171 29 235 94 79 79 100 131 100 246 0 115 -21
167 -100 246 -91 92 -238 121 -365 72z"/>
<path d="M8040 5658 c-66 -25 -145 -101 -180 -173 -21 -42 -25 -65 -25 -145 0
-115 21 -167 100 -246 91 -92 234 -120 362 -72 79 29 162 112 191 191 49 131
20 271 -77 368 -71 71 -141 99 -244 98 -48 0 -90 -7 -127 -21z"/>
<path d="M4942 3430 c-40 -11 -105 -36 -145 -57 -98 -51 -229 -181 -280 -280
-103 -198 -103 -438 0 -636 51 -98 182 -229 280 -280 199 -104 447 -104 646 0
98 51 229 182 280 280 103 198 103 438 0 636 -51 98 -182 229 -280 280 -147
77 -341 99 -501 57z"/>
</g>
</svg>
