<?xml version="1.0" encoding="utf-8"?>
<!-- Generator: Adobe Illustrator 19.0.0, SVG Export Plug-In . SVG Version: 6.00 Build 0)  -->
<svg version="1.1" id="Layer_1" xmlns="http://www.w3.org/2000/svg" xmlns:xlink="http://www.w3.org/1999/xlink" x="0px" y="0px"
	 viewBox="0 253 960 56" style="enable-background:new 0 253 960 56;" xml:space="preserve">
<style type="text/css">
	.st0{fill:#E5E5E5;}
</style>
<g>
	<path class="st0" d="M23.8,308.1H12.5v-44.5H0v-9.7h36.4v9.7H23.8V308.1z"/>
	<path class="st0" d="M68.8,253.8l13.6,54.4h-12l-2.6-11.6H54.4l-2.5,11.6H39.8l13.5-54.4L68.8,253.8L68.8,253.8z M56.6,286.7h8.9
		l-4.5-20L56.6,286.7z"/>
	<path class="st0" d="M109.6,308.1H98.4v-16.6l-15.5-37.6h12.3l8.9,23.7l8.8-23.7h12.3l-15.5,37.6v16.6H109.6z"/>
	<path class="st0" d="M134.2,308.1v-54.2h11.2v43.6h17.7v10.6H134.2z"/>
	<path class="st0" d="M170.2,282.4v-2.7c0-18.7,6.6-26.6,20.7-26.6s20.7,7.9,20.7,26.6v2.7c0,18.7-6.6,26.6-20.7,26.6
		S170.2,301.1,170.2,282.4z M191.1,299.3c7,0,8.9-6.1,8.9-16.9v-2.7c0-10.8-1.9-16.9-8.9-16.9h-0.6c-7,0-9,6.1-9,16.9v2.7
		c0,10.8,2,16.9,9,16.9H191.1z"/>
	<path class="st0" d="M235.7,308.1h-11.2v-54.2h17.8c8.8,0,18.8,2.3,18.8,16.7v1.4c0,8.7-3.6,13.1-8.5,15.1l8.5,21.1H249l-7.4-19.4
		h-5.8v19.3H235.7z M242.7,278.9c3,0,7-1.2,7-7.3v-0.7c0-6.1-3.8-7.3-7-7.3h-7v15.3H242.7z"/>
	<path class="st0" d="M322,266.8l-7.9,41.5h-14.4l-8.9-54.4h11.8l5.2,39l7.3-39h14l7.3,39l5.2-39h11.8l-8.9,54.4H330L322,266.8z"/>
	<path class="st0" d="M404.5,253.9v54.2h-11.2v-22.8h-15.8v22.8h-11.2v-54.2h11.2v21.7h15.8v-21.7L404.5,253.9L404.5,253.9z"/>
	<path class="st0" d="M430.1,308.1h-11.2v-54.2h11.2V308.1z"/>
	<path class="st0" d="M466.9,308.1h-11.2v-44.5h-12.5v-9.7h36.4v9.7H467v44.5H466.9z"/>
	<path class="st0" d="M524.3,308.1h-11.4l-9.6-34.6l0.3,10.8v23.8h-11.2v-54.2H509l9.7,34.6l9.6-34.6H545v54.2h-11.2v-23.8l0.3-10.8
		L524.3,308.1z"/>
	<path class="st0" d="M585.1,253.8l13.6,54.3h-12.1l-2.6-11.6h-13.3l-2.5,11.6h-12.1l13.6-54.4L585.1,253.8L585.1,253.8L585.1,253.8
		z M572.8,286.7h8.9l-4.5-20L572.8,286.7z"/>
	<path class="st0" d="M649.4,308.1h-11.9L620,274.5l0.3,10.9v22.7h-10.5v-54.2h11.9l17.4,33.6l-0.3-10.9v-22.7h10.7v54.2H649.4z"/>
	<path class="st0" d="M695,308.1h-11.2v-54.2h17.8c8.8,0,18.8,2.3,18.8,16.7v1.4c0,14.5-10,16.7-18.8,16.7H695V308.1z M702,278.9
		c3,0,7-1.2,7-7.3v-0.7c0-6.1-3.8-7.3-7-7.3h-7v15.3H702z"/>
	<path class="st0" d="M728.9,282.4v-2.7c0-18.7,6.6-26.6,20.7-26.6s20.7,7.9,20.7,26.6v2.7c0,18.7-6.6,26.6-20.7,26.6
		S728.9,301.1,728.9,282.4z M749.9,299.3c7,0,8.9-6.1,8.9-16.9v-2.7c0-10.8-1.9-16.9-8.9-16.9h-0.6c-7,0-9,6.1-9,16.9v2.7
		c0,10.8,2,16.9,9,16.9H749.9z"/>
	<path class="st0" d="M782.8,291v-37.1H794v36.7c0,5.8,1.8,8.7,8.2,8.7s8.3-2.9,8.3-8.7v-36.7h11.2V291c0,11.9-4.8,18-19.6,18
		C787.5,309,782.8,302.7,782.8,291z"/>
	<path class="st0" d="M835.5,308.1v-54.2h11.2v43.9h16.7v10.3H835.5z"/>
	<path class="st0" d="M869.5,282.4v-2.7c0-18.7,6.6-26.6,20.7-26.6s20.7,7.9,20.7,26.6v2.7c0,18.7-6.6,26.6-20.7,26.6
		S869.5,301.1,869.5,282.4z M890.5,299.3c7,0,8.9-6.1,8.9-16.9v-2.7c0-10.8-1.9-16.9-8.9-16.9h-0.6c-7,0-9,6.1-9,16.9v2.7
		c0,10.8,2,16.9,9,16.9H890.5z"/>
	<path class="st0" d="M921.3,269.9v-0.8c0-9.8,6.8-16.1,19.1-16.1c13.4,0,19.1,5.9,19.1,18.6v1.4h-11.2c0-7.1-2.1-10.3-7.9-10.3
		h-0.6c-4.6,0-7.2,2.5-7.2,6v0.3c0,4,1.6,6.1,9.5,7.1c11.9,1.6,17.8,5.7,17.8,15.7v0.7c0,10.4-6.9,16.5-19.7,16.5
		s-19.6-5.7-19.6-18.7v-0.6H932c0,6.8,2.7,9.6,8,9.6h0.6c5.2,0,7.8-2.7,7.8-6.4v-0.4c0-3.8-2-6.1-9.8-7.1
		C926.8,283.9,921.3,279.6,921.3,269.9z"/>
</g>
</svg>
